<svg id="visual" viewBox="0 0 900 600" width="900" height="600" xmlns="http://www.w3.org/2000/svg" xmlns:xlink="http://www.w3.org/1999/xlink" version="1.1"><rect x="0" y="0" width="900" height="600" fill="#f0f0f0"></rect><defs><linearGradient id="grad1_0" x1="33.3%" y1="0%" x2="100%" y2="100%"><stop offset="20%" stop-color="#f0f0f0" stop-opacity="1"></stop><stop offset="80%" stop-color="#f0f0f0" stop-opacity="1"></stop></linearGradient></defs><defs><linearGradient id="grad2_0" x1="0%" y1="0%" x2="66.7%" y2="100%"><stop offset="20%" stop-color="#f0f0f0" stop-opacity="1"></stop><stop offset="80%" stop-color="#f0f0f0" stop-opacity="1"></stop></linearGradient></defs><g transform="translate(900, 0)"><path d="M0 351.5C-59.3 329.1 -118.5 306.6 -156 270.2C-193.5 233.8 -209.2 183.4 -235.6 136C-261.9 88.6 -299 44.3 -336 0L0 0Z" fill="#0267ff"></path></g><g transform="translate(0, 600)"><path d="M0 -313C65 -322.9 129.9 -332.8 175.8 -304.4C221.6 -276.1 248.3 -209.6 264.1 -152.5C280 -95.4 285 -47.7 290 0L0 0Z" fill="#0267ff"></path></g></svg>